PathFileType  4	(X/Y/Z) C:\Users\antoi\Documents\MyRepositories\mobilecap\ResultsAnalysis
DataRate	CameraRate	NumFrames	NumMarkers	Units	OrigDataRate	OrigDataStartFrame	OrigNumFrames
100.0	100.0	4	51	mm	100.0	676	1351
Frame#	Time	r_knee			r_shank_antsup			r_ankle			r_calc			r_5meta			r_toe			L_knee			L_shank_antsup			L_ankle			L_calc			L_5meta			L_toe			r_sh2			r_sh3			r_sh4			L_sh2			L_sh3			r_thigh1			r_thigh2			r_thigh3			r_thigh4			r_thigh5			L_thigh1			L_thigh2			L_thigh3			L_thigh4			r.ASIS			r.PSIS			L.ASIS			L.PSIS			C7			R_Shoulder			L_Shoulder			R_Sternum			L_Sternum			R_humerus			R_elbow_med			R_elbow_lat			R_forearm			R_wrist_radius			R_wrist_ulna			L_humerus			L_elbow_med			L_elbow_lat			L_forearm			L_wrist_radius			L_wrist_ulna			R_HJC			L_HJC			R_HJC_reg			L_HJC_reg			
		X1	Y1	Z1	X2	Y2	Z2	X3	Y3	Z3	X4	Y4	Z4	X5	Y5	Z5	X6	Y6	Z6	X7	Y7	Z7	X8	Y8	Z8	X9	Y9	Z9	X10	Y10	Z10	X11	Y11	Z11	X12	Y12	Z12	X13	Y13	Z13	X14	Y14	Z14	X15	Y15	Z15	X16	Y16	Z16	X17	Y17	Z17	X18	Y18	Z18	X19	Y19	Z19	X20	Y20	Z20	X21	Y21	Z21	X22	Y22	Z22	X23	Y23	Z23	X24	Y24	Z24	X25	Y25	Z25	X26	Y26	Z26	X27	Y27	Z27	X28	Y28	Z28	X29	Y29	Z29	X30	Y30	Z30	X31	Y31	Z31	X32	Y32	Z32	X33	Y33	Z33	X34	Y34	Z34	X35	Y35	Z35	X36	Y36	Z36	X37	Y37	Z37	X38	Y38	Z38	X39	Y39	Z39	X40	Y40	Z40	X41	Y41	Z41	X42	Y42	Z42	X43	Y43	Z43	X44	Y44	Z44	X45	Y45	Z45	X46	Y46	Z46	X47	Y47	Z47	X48	Y48	Z48	X49	Y49	Z49	X50	Y50	Z50	X51	Y51	Z51	

676	6.75000000	8.77784	402.65166	-366.25372	10.09310	301.53416	-391.03358	-273.74131	120.50095	-442.53867	-363.47994	76.15743	-501.12368	-187.20799	48.91256	-378.74129	-117.65460	71.18295	-432.73356	16.35597	454.18143	-814.12704	-12.57087	389.63329	-836.11434	-253.48773	152.25001	-796.50649	-337.11000	107.68464	-730.92020	-186.99089	66.25775	-874.21759	-108.70749	74.55649	-830.32206	-76.55738	228.09308	-381.83803	-26.82407	349.01528	-348.43093	-126.46465	288.15858	-349.14017	-76.57604	445.64844	-806.03702	-148.49669	344.78279	-808.32610	-220.29497	620.63763	-350.37252	-122.15103	576.07882	-359.69533	-120.58404	515.65540	-327.65642	-264.12407	517.67109	-349.69622	-156.20036	476.61120	-345.70741	-190.27393	637.36741	-741.74763	-60.58114	588.22637	-765.33232	-233.05525	543.09275	-778.53879	-108.61660	491.26545	-803.05151	-266.70644	710.11190	-413.02268	-441.72196	736.96214	-491.09306	-252.36244	690.97121	-657.70856	-437.00522	729.15253	-597.45890	-78.18651	1173.67611	-513.39174	-43.42248	1082.17071	-353.47479	-36.94221	1098.69348	-681.82164	1.87925	1041.30351	-488.34306	0.86876	1040.54534	-543.29567	-31.18633	952.45683	-280.06361	-43.53407	735.23388	-294.90740	-32.98377	771.61935	-213.19575	138.66972	761.20046	-226.02542	229.02581	778.95244	-254.35502	220.56512	739.46072	-230.42416	-59.41598	1001.84033	-780.97363	-64.24324	750.18542	-768.54182	-50.55935	788.28362	-846.13400	27.46767	792.03568	-851.33357	198.78724	781.63240	-818.96975	195.49144	744.83828	-838.04197	-355.67520	601.28722	-426.70170	-349.56178	592.38446	-633.38034	-331.50058	633.35847	-444.86989	-324.32914	621.48909	-606.53806	
677	6.76000000	7.94379	403.52200	-366.37122	9.53402	302.23148	-391.09719	-273.85030	120.42333	-442.52665	-363.51219	76.08542	-501.10876	-187.22346	48.87531	-378.72650	-117.63894	71.25562	-432.73884	15.72767	454.53963	-813.90955	-13.33425	389.80286	-835.70525	-253.64222	152.00920	-796.28786	-337.03694	106.86721	-731.12863	-187.12974	66.12264	-874.13869	-108.73195	74.57316	-830.34946	-76.91366	228.68394	-381.65874	-27.59922	349.61114	-348.52575	-127.13709	288.81068	-348.71016	-77.47154	445.68978	-805.59450	-149.07880	344.73751	-808.23419	-220.12038	623.36919	-350.09085	-121.02471	578.18689	-360.32969	-120.62712	517.52157	-327.55570	-264.14105	520.52451	-349.54725	-156.53392	478.70790	-345.68459	-189.36613	639.50511	-741.94346	-60.12881	589.23693	-765.45043	-232.95469	545.35437	-778.25288	-108.85963	492.59302	-802.74730	-266.22077	713.61656	-412.83141	-441.13789	740.57687	-490.53185	-251.95676	694.53913	-657.47876	-436.62485	732.74500	-597.39236	-79.27706	1178.20940	-513.94833	-44.06151	1086.82950	-354.03744	-37.91258	1103.36425	-682.44244	1.22776	1046.10646	-488.83989	0.15141	1045.36492	-543.68916	-31.70170	956.86226	-280.66953	-44.37286	739.61134	-295.46794	-33.84471	775.94485	-213.83362	137.85689	764.76755	-226.58337	228.27399	782.19308	-254.80680	219.62677	742.78709	-230.94273	-60.14013	1006.16386	-781.20689	-65.65497	754.49516	-768.79978	-51.83944	792.58444	-846.20995	26.21043	796.06507	-851.29575	197.51173	785.23491	-819.48775	194.06518	748.37698	-838.35952	-355.19581	604.83012	-426.46625	-349.19781	595.97889	-633.15068	-330.91199	636.95037	-444.53700	-324.08589	625.10257	-606.19066	
678	6.77000000	6.98260	404.50507	-366.53130	8.86555	302.97562	-391.16241	-273.93820	120.38444	-442.49847	-363.51723	76.04456	-501.12351	-187.23575	48.86430	-378.71470	-117.62472	71.31716	-432.75720	14.95443	455.00873	-813.76403	-14.16479	390.11383	-835.30257	-253.81479	151.76301	-796.06061	-337.00945	106.03015	-731.45380	-187.29118	66.03451	-874.07907	-108.83361	74.54030	-830.32547	-77.38304	229.24747	-381.59137	-28.48957	350.38273	-348.56481	-127.38407	289.47580	-348.67522	-78.45198	445.79853	-805.15935	-149.58220	344.99246	-808.10558	-219.21317	625.93488	-350.40098	-120.60828	580.15521	-359.95716	-120.68685	519.54510	-327.41738	-264.07919	523.56090	-349.60567	-156.91707	480.93856	-345.72353	-188.49650	641.84487	-742.08938	-59.67929	590.33139	-765.55406	-232.91998	547.78348	-777.68631	-109.31470	493.90606	-802.23845	-265.69604	717.39185	-412.65956	-440.64544	744.52503	-490.34428	-251.51000	698.36353	-657.07818	-436.20801	736.78088	-597.24519	-80.47654	1183.14171	-514.52009	-44.66555	1091.91091	-354.59181	-38.93532	1108.46519	-682.83942	0.52115	1051.42114	-489.32007	-0.56452	1050.63792	-544.12425	-32.20492	961.60166	-281.30845	-45.36607	744.43340	-296.11074	-34.81673	780.64366	-214.53374	137.06207	768.53373	-227.22944	227.39075	785.62798	-255.36465	218.57302	746.27865	-231.52197	-61.01010	1010.92294	-781.45095	-67.07645	759.34478	-768.76567	-53.25928	797.26480	-846.22550	24.83312	800.44132	-851.35082	196.13575	789.01181	-819.87659	192.55684	752.20864	-838.73001	-354.86479	608.70735	-426.26632	-348.83864	599.89601	-632.95159	-330.40974	640.78525	-444.34393	-323.70615	629.08478	-605.85697	
679	6.78000000	5.95316	405.63721	-366.75368	8.10049	303.89467	-391.16103	-274.03538	120.44112	-442.36672	-363.50800	75.99317	-501.11370	-187.25100	48.89849	-378.70956	-117.66645	71.32129	-432.73133	13.99892	455.49015	-813.40720	-15.14489	390.67994	-835.03763	-254.00466	151.54345	-795.85518	-337.07335	105.44872	-731.60118	-187.46443	65.98268	-874.05074	-108.95520	74.51417	-830.31460	-77.95865	229.97445	-381.63142	-29.31664	351.35586	-348.50840	-127.17276	290.33301	-349.16425	-79.55827	446.01026	-804.68643	-150.32057	345.20251	-807.57367	-217.66744	628.45850	-351.30493	-120.47580	582.20870	-359.24268	-120.80583	521.79224	-327.36960	-264.14241	526.90621	-349.52993	-157.31460	483.45309	-345.61421	-187.64935	644.40965	-742.21385	-59.30449	591.66418	-765.65508	-232.93266	550.52855	-777.17702	-109.86354	495.46143	-801.90570	-265.16727	721.44947	-412.56290	-440.05896	748.87415	-490.09245	-251.11276	702.60053	-656.76981	-435.75249	741.20641	-597.02511	-81.69882	1188.54204	-514.92395	-45.26984	1097.39614	-355.05687	-40.02594	1113.98999	-683.22396	-0.22002	1057.22964	-489.78084	-1.36080	1056.36207	-544.59627	-32.69346	966.73361	-281.93481	-46.53827	749.69867	-296.97909	-35.83735	785.72417	-215.18916	136.14219	772.54955	-227.94444	226.40545	789.24056	-255.89306	217.36901	749.87157	-232.05090	-62.08947	1016.17733	-781.70333	-68.64112	764.67374	-768.64086	-54.77807	802.35491	-846.23084	23.31812	805.20146	-851.53140	194.68033	793.00248	-819.99376	190.90350	756.23703	-838.97471	-354.49435	612.90270	-426.12749	-348.54018	604.23057	-632.82069	-329.92306	645.02761	-444.19435	-323.42358	633.45588	-605.57118	
